# xmcd
#
# Track frame offsets:
#	150
#	13482
#	29065
#	43762
#	58215
#	74685
#	88622
#	104177
#	115605
#	134122
#	150345
#	165780
#
# Disc length: 2468 seconds
#
# Revision: 2
# Processed by: cddbd v1.5.2PL0 Copyright (c) Steve Scherf et al.
# Submitted via: audiograbber 1.83.01
#
DISCID=ae09a20c
DTITLE=John Stewart - Trancas
DYEAR=1984
DGENRE=American Folk
TTITLE0=It Ain't The Gold
TTITLE1=Reasons To Rise
TTITLE2=Pilots In Blue
TTITLE3=Chasing Down The Rain
TTITLE4='Til The Lights Come Home
TTITLE5=Bringing Down The Moon
TTITLE6=All The Lights
TTITLE7=Rocky Top
TTITLE8=The American Way
TTITLE9=The Chosen
TTITLE10=The Heart Of A Kid
TTITLE11=Irresistable Targets
EXTD=
EXTT0=
EXTT1=
EXTT2=
EXTT3=
EXTT4=
EXTT5=
EXTT6=
EXTT7=
EXTT8=
EXTT9=
EXTT10=
EXTT11=
PLAYORDER=
